<?xml version="1.0" standalone="no"?>
<!DOCTYPE svg PUBLIC "-//W3C//DTD SVG 20010904//EN"
 "http://www.w3.org/TR/2001/REC-SVG-20010904/DTD/svg10.dtd">
<svg version="1.0" xmlns="http://www.w3.org/2000/svg"
 width="416.000000pt" height="416.000000pt" viewBox="0 0 416.000000 416.000000"
 preserveAspectRatio="xMidYMid meet">
<metadata>
Created by potrace 1.14, written by Peter Selinger 2001-2017
</metadata>
<g transform="translate(0.000000,416.000000) scale(0.100000,-0.100000)"
fill="#000000" stroke="none">
<path d="M3209 3718 c-23 -4 -53 -18 -67 -30 -49 -45 -53 -71 -52 -322 1 -259
5 -275 72 -316 31 -19 51 -20 403 -20 510 0 479 -22 480 340 1 279 -4 298 -84
340 -28 14 -675 21 -752 8z"/>
<path d="M1118 3694 c-2 -1 -42 -6 -88 -9 -47 -3 -94 -8 -105 -10 -11 -2 -36
-4 -56 -4 l-36 -1 -22 -112 c-104 -525 -317 -1095 -600 -1602 -34 -60 -61
-112 -61 -114 0 -3 -6 -13 -13 -21 -8 -9 -28 -42 -46 -74 l-31 -57 24 -10 c35
-13 53 -46 59 -108 23 -203 194 -300 462 -263 39 5 102 13 140 16 39 4 77 8
85 10 8 3 53 7 100 10 47 4 96 8 109 10 166 27 965 27 1176 0 17 -3 59 -7 95
-11 36 -3 67 -8 70 -9 3 -2 28 -6 56 -9 44 -5 102 -19 169 -41 17 -5 28 7 69
76 l49 82 19 -23 c10 -13 23 -30 27 -38 8 -13 14 -12 47 7 l38 22 63 -27 64
-27 24 23 25 24 53 -37 c57 -40 70 -35 39 15 -24 39 -207 404 -252 503 -192
420 -367 926 -465 1340 -48 205 -53 220 -96 268 -76 87 -207 133 -402 142 -43
2 -99 10 -125 19 -26 8 -60 17 -77 20 -16 4 -41 9 -55 13 -26 6 -526 13 -532
7z m517 -1191 c26 -49 106 -187 179 -308 72 -121 133 -224 135 -228 2 -5 -12
-6 -30 -3 -171 30 -440 63 -584 72 -60 3 -111 8 -113 9 -2 2 43 70 101 152 57
81 137 203 178 270 41 67 77 122 81 123 3 0 27 -39 53 -87z"/>
<path d="M3389 2896 c-2 -2 -31 -6 -64 -9 -59 -6 -128 -28 -139 -45 -3 -5 1
-33 9 -63 8 -30 16 -74 20 -99 3 -25 8 -56 10 -70 2 -14 7 -56 10 -95 3 -38 7
-90 10 -115 18 -191 31 -596 40 -1270 5 -346 11 -560 19 -605 4 -27 22 -29 86
-7 46 16 58 25 75 59 18 35 23 39 42 30 19 -8 31 -3 75 30 32 25 85 51 133 67
79 26 80 27 114 86 32 54 38 60 68 60 29 0 33 4 44 40 12 39 13 40 36 25 21
-14 23 -14 24 2 0 10 2 27 4 38 2 11 7 40 10 65 3 25 10 77 16 115 5 39 12 88
14 110 3 22 10 72 15 110 5 39 12 93 15 120 3 28 8 61 10 75 2 14 7 57 10 95
3 39 8 81 10 95 5 32 15 113 19 170 9 110 19 207 22 230 2 14 6 99 9 190 5
134 3 175 -11 220 -49 166 -156 263 -355 320 -58 17 -109 23 -235 26 -88 2
-163 2 -165 0z"/>
<path d="M1317 1214 c-1 -1 -87 -4 -192 -8 -225 -7 -362 -16 -488 -32 -18 -2
-54 -6 -82 -10 -72 -8 -251 -43 -315 -60 -148 -41 -148 -41 -179 -102 -40 -81
-55 -146 -54 -232 0 -113 36 -202 105 -266 110 -101 197 -112 478 -60 102 19
208 37 235 41 28 3 61 8 75 10 29 5 106 14 170 20 25 3 61 7 80 10 62 8 194
21 310 31 41 3 91 7 110 9 19 2 80 6 135 9 55 4 129 9 165 11 413 29 1075 19
1169 -16 21 -8 28 -6 43 13 10 13 18 26 18 30 0 4 16 34 36 68 43 74 41 92
-21 149 -25 23 -45 44 -45 46 0 3 9 5 20 5 28 0 25 12 -10 35 -16 11 -30 28
-30 37 0 45 -194 124 -395 159 -113 19 -314 48 -380 54 -38 4 -80 8 -93 10
-13 2 -67 7 -120 10 -53 4 -115 9 -137 11 -59 5 -604 21 -608 18z"/>
</g>
</svg>
